<svg width="93" height="73" viewBox="0 0 93 73" fill="none" xmlns="http://www.w3.org/2000/svg">
<g filter="url(#filter0_i_2376_2130)">
<path d="M49.1875 61.0312C46.1875 61.0312 43.6458 60.5 41.5625 59.4375C39.5 58.375 37.9271 56.8333 36.8438 54.8125C35.7812 52.7917 35.25 50.3333 35.25 47.4375V29.7188C35.25 26.7812 35.7812 24.2812 36.8438 22.2188C37.9271 20.1562 39.5 18.5938 41.5625 17.5312C43.6458 16.4479 46.1875 15.9062 49.1875 15.9062H78.6562C81.6562 15.9062 84.1875 16.4479 86.25 17.5312C88.3125 18.5938 89.875 20.1562 90.9375 22.2188C92.0208 24.2812 92.5625 26.7812 92.5625 29.7188V47.4375C92.5625 50.3333 92.0312 52.7917 90.9688 54.8125C89.9271 56.8333 88.3854 58.375 86.3438 59.4375C84.3021 60.5 81.8125 61.0312 78.875 61.0312H78.2812V68.7188C78.2812 69.9271 77.9792 70.8854 77.375 71.5938C76.7708 72.3229 75.9062 72.6875 74.7812 72.6875C74.0312 72.6875 73.3229 72.4792 72.6562 72.0625C71.9896 71.6667 71.1875 71.0521 70.25 70.2188L59.5 61.0312H49.1875ZM0.96875 39.25V14.9688C0.96875 11.8854 1.54167 9.25 2.6875 7.0625C3.83333 4.875 5.48958 3.20833 7.65625 2.0625C9.84375 0.895833 12.5104 0.3125 15.6562 0.3125H55.5C59.4375 0.3125 62.6146 1.22917 65.0312 3.0625C67.4479 4.89583 68.9896 7.48958 69.6562 10.8438V11.3438H49.1875C45.3333 11.3438 42.0208 12.0938 39.25 13.5938C36.5 15.0729 34.3854 17.1875 32.9062 19.9375C31.4271 22.6875 30.6875 25.9479 30.6875 29.7188V47.4375C30.6875 51.0208 31.3854 54.1458 32.7812 56.8125L24.8438 63.8125C23.8854 64.6667 23.0729 65.2917 22.4062 65.6875C21.7396 66.0833 21.0104 66.2812 20.2188 66.2812C19.1146 66.2812 18.25 65.9167 17.625 65.1875C17.0208 64.4792 16.7188 63.5104 16.7188 62.2812V53.9062H15.4375C12.4167 53.9062 9.82292 53.3333 7.65625 52.1875C5.51042 51.0208 3.85417 49.3438 2.6875 47.1562C1.54167 44.9688 0.96875 42.3333 0.96875 39.25ZM64.0625 41.875C65.5625 41.875 66.3542 41.0625 66.4375 39.4375L66.8438 29.9688C66.8854 29.1354 66.6354 28.4583 66.0938 27.9375C65.5521 27.3958 64.8646 27.125 64.0312 27.125C63.2188 27.125 62.5417 27.3854 62 27.9062C61.4792 28.4271 61.2292 29.1042 61.25 29.9375L61.625 39.4375C61.7083 41.0625 62.5208 41.875 64.0625 41.875ZM64.0312 50.8438C64.9479 50.8438 65.7083 50.5625 66.3125 50C66.9375 49.4167 67.25 48.6979 67.25 47.8438C67.25 46.9688 66.9375 46.25 66.3125 45.6875C65.7083 45.1042 64.9479 44.8125 64.0312 44.8125C63.1146 44.8125 62.3542 45.1042 61.75 45.6875C61.1458 46.2708 60.8438 46.9896 60.8438 47.8438C60.8438 48.6771 61.1458 49.3854 61.75 49.9688C62.375 50.5521 63.1354 50.8438 64.0312 50.8438Z" fill="url(#paint0_linear_2376_2130)"/>
</g>
<defs>
<filter id="filter0_i_2376_2130" x="0.96875" y="0.3125" width="91.5938" height="72.375" filterUnits="userSpaceOnUse" color-interpolation-filters="sRGB">
<feFlood flood-opacity="0" result="BackgroundImageFix"/>
<feBlend mode="normal" in="SourceGraphic" in2="BackgroundImageFix" result="shape"/>
<feColorMatrix in="SourceAlpha" type="matrix" values="0 0 0 0 0 0 0 0 0 0 0 0 0 0 0 0 0 0 127 0" result="hardAlpha"/>
<feOffset dy="1"/>
<feComposite in2="hardAlpha" operator="arithmetic" k2="-1" k3="1"/>
<feColorMatrix type="matrix" values="0 0 0 0 1 0 0 0 0 1 0 0 0 0 1 0 0 0 0.5 0"/>
<feBlend mode="overlay" in2="shape" result="effect1_innerShadow_2376_2130"/>
</filter>
<linearGradient id="paint0_linear_2376_2130" x1="47" y1="-2" x2="47" y2="74" gradientUnits="userSpaceOnUse">
<stop stop-color="#FF8E26"/>
<stop offset="1" stop-color="#F3BF37"/>
</linearGradient>
</defs>
</svg>
