<svg width="99" height="76" viewBox="0 0 99 76" fill="none" xmlns="http://www.w3.org/2000/svg">
    <g filter="url(#filter0_i_2376_2120)">
    <path d="M31.3516 75.2188C29.5547 75.2188 28.1354 74.8151 27.0938 74.0078C26.0521 73.2005 25.5312 72.0807 25.5312 70.6484C25.5312 68.5651 26.1693 66.3776 27.4453 64.0859C28.7214 61.7943 30.5443 59.6589 32.9141 57.6797C35.2839 55.6745 38.1484 54.0469 41.5078 52.7969C44.8932 51.5208 48.6693 50.8828 52.8359 50.8828C57.0286 50.8828 60.7917 51.5208 64.125 52.7969C67.4844 54.0469 70.349 55.6745 72.7188 57.6797C75.1146 59.6589 76.9375 61.7943 78.1875 64.0859C79.4635 66.3776 80.1016 68.5651 80.1016 70.6484C80.1016 72.0807 79.5807 73.2005 78.5391 74.0078C77.5234 74.8151 76.1172 75.2188 74.3203 75.2188H31.3516ZM52.8359 45.1797C50.5182 45.1797 48.3698 44.5417 46.3906 43.2656C44.4115 41.9896 42.8229 40.2839 41.625 38.1484C40.4271 35.987 39.8281 33.5651 39.8281 30.8828C39.8281 28.2526 40.4271 25.8828 41.625 23.7734C42.8229 21.6641 44.4115 19.9844 46.3906 18.7344C48.3698 17.4844 50.5182 16.8594 52.8359 16.8594C55.1797 16.8594 57.3411 17.4714 59.3203 18.6953C61.2995 19.9193 62.875 21.5859 64.0469 23.6953C65.2448 25.8047 65.8438 28.1875 65.8438 30.8438C65.8438 33.526 65.2448 35.9479 64.0469 38.1094C62.875 40.2708 61.2995 41.9896 59.3203 43.2656C57.3411 44.5417 55.1797 45.1797 52.8359 45.1797ZM6.58594 59.2422C4.73698 59.2422 3.33073 58.7734 2.36719 57.8359C1.42969 56.8984 0.960938 55.5182 0.960938 53.6953V45.4141C0.960938 43.6172 1.42969 42.25 2.36719 41.3125C3.33073 40.375 4.73698 39.9062 6.58594 39.9062H14.6328C16.4818 39.9062 17.875 40.375 18.8125 41.3125C19.776 42.25 20.2578 43.6172 20.2578 45.4141V53.6953C20.2578 55.4922 19.776 56.8724 18.8125 57.8359C17.875 58.7734 16.4818 59.2422 14.6328 59.2422H6.58594ZM17.1719 30.6484C15.3229 30.6484 13.9167 30.1797 12.9531 29.2422C12.0156 28.3047 11.5469 26.9375 11.5469 25.1406V5.84375C11.5469 4.04688 12.0156 2.67969 12.9531 1.74219C13.9167 0.804688 15.3229 0.335938 17.1719 0.335938H45.9609C47.8099 0.335938 49.2031 0.804688 50.1406 1.74219C51.1042 2.67969 51.5859 4.04688 51.5859 5.84375V11.1953C48.3568 11.4297 45.4271 12.4453 42.7969 14.2422C40.1667 16.013 38.0703 18.3307 36.5078 21.1953C34.9453 24.0599 34.151 27.2109 34.125 30.6484H17.1719ZM81.2734 51.6641C79.4245 51.6641 78.0182 51.2083 77.0547 50.2969C76.1172 49.3594 75.6484 47.9792 75.6484 46.1562V23.0312C75.6484 21.2344 76.1172 19.8672 77.0547 18.9297C78.0182 17.9922 79.4245 17.5234 81.2734 17.5234H93.0312C94.8802 17.5234 96.2734 17.9922 97.2109 18.9297C98.1745 19.8672 98.6562 21.2344 98.6562 23.0312V46.1562C98.6562 47.9792 98.1745 49.3594 97.2109 50.2969C96.2734 51.2083 94.8802 51.6641 93.0312 51.6641H81.2734Z" fill="url(#paint0_linear_2376_2120)"/>
    </g>
    <defs>
    <filter id="filter0_i_2376_2120" x="0.960938" y="0.335938" width="97.6953" height="74.8828" filterUnits="userSpaceOnUse" color-interpolation-filters="sRGB">
    <feFlood flood-opacity="0" result="BackgroundImageFix"/>
    <feBlend mode="normal" in="SourceGraphic" in2="BackgroundImageFix" result="shape"/>
    <feColorMatrix in="SourceAlpha" type="matrix" values="0 0 0 0 0 0 0 0 0 0 0 0 0 0 0 0 0 0 127 0" result="hardAlpha"/>
    <feOffset dy="1"/>
    <feComposite in2="hardAlpha" operator="arithmetic" k2="-1" k3="1"/>
    <feColorMatrix type="matrix" values="0 0 0 0 1 0 0 0 0 1 0 0 0 0 1 0 0 0 0.5 0"/>
    <feBlend mode="overlay" in2="shape" result="effect1_innerShadow_2376_2120"/>
    </filter>
    <linearGradient id="paint0_linear_2376_2120" x1="50" y1="-10" x2="50" y2="85" gradientUnits="userSpaceOnUse">
    <stop stop-color="#EB2B4E"/>
    <stop offset="1" stop-color="#FF9DB5"/>
    </linearGradient>
    </defs>
</svg>
