<svg width="103" height="100" viewBox="0 0 103 100" fill="none" xmlns="http://www.w3.org/2000/svg">
<g filter="url(#filter0_i_2376_2135)">
<path d="M38.4453 75.6797L91.9609 98.0625C93.5755 98.7396 95.099 98.9219 96.5312 98.6094C97.9635 98.3229 99.1615 97.6719 100.125 96.6562C101.089 95.6667 101.701 94.4557 101.961 93.0234C102.221 91.5911 101.987 90.0677 101.258 88.4531L77.7422 36.2656C76.7526 34.0781 75.3464 32.6589 73.5234 32.0078C71.7005 31.3307 69.6432 31.2526 67.3516 31.7734C65.0339 32.2943 62.638 33.2188 60.1641 34.5469C57.6641 35.849 55.2552 37.3854 52.9375 39.1562C50.5938 40.901 48.4974 42.6979 46.6484 44.5469C44.8255 46.3958 43.0417 48.5052 41.2969 50.875C39.526 53.2188 37.9896 55.6406 36.6875 58.1406C35.3854 60.6406 34.487 63.0625 33.9922 65.4062C33.4714 67.724 33.5365 69.7943 34.1875 71.6172C34.8385 73.4141 36.2578 74.7682 38.4453 75.6797ZM60.9453 58.8438C57.7943 62.0208 54.8125 64.5469 52 66.4219C49.1875 68.2708 46.7526 69.4688 44.6953 70.0156C42.638 70.5365 41.2057 70.3802 40.3984 69.5469C39.5911 68.7917 39.4609 67.3854 40.0078 65.3281C40.5286 63.2708 41.7266 60.8359 43.6016 58.0234C45.4505 55.1849 47.9635 52.2031 51.1406 49.0781C54.2917 45.9271 57.2865 43.4141 60.125 41.5391C62.9375 39.6641 65.3594 38.4531 67.3906 37.9062C69.4219 37.3333 70.8411 37.4635 71.6484 38.2969C72.4818 39.1042 72.625 40.5365 72.0781 42.5938C71.5312 44.625 70.3333 47.0599 68.4844 49.8984C66.6094 52.737 64.0964 55.7188 60.9453 58.8438ZM65.9062 10.1719C67.2344 10.1719 68.3411 9.72917 69.2266 8.84375C70.112 7.93229 70.5547 6.82552 70.5547 5.52344C70.5547 4.2474 70.112 3.16667 69.2266 2.28125C68.3411 1.36979 67.2344 0.914062 65.9062 0.914062C64.6302 0.914062 63.5365 1.36979 62.625 2.28125C61.7135 3.16667 61.2578 4.2474 61.2578 5.52344C61.2578 6.82552 61.7135 7.93229 62.625 8.84375C63.5365 9.72917 64.6302 10.1719 65.9062 10.1719ZM60.2422 17.1641C59.3568 21.9036 58.9141 26.6172 58.9141 31.3047C58.9141 35.9661 59.3568 40.6797 60.2422 45.4453C60.4245 46.2526 60.7891 46.9427 61.3359 47.5156C61.8828 48.0885 62.5599 48.375 63.3672 48.375C64.1745 48.349 64.9167 48.0365 65.5938 47.4375C66.2708 46.8385 66.5052 46.0964 66.2969 45.2109C65.4375 40.5755 65.0078 35.9401 65.0078 31.3047C65.0078 26.6432 65.4375 22.0208 66.2969 17.4375C66.4792 16.5521 66.2448 15.8099 65.5938 15.2109C64.9167 14.5859 64.1615 14.2604 63.3281 14.2344C62.4688 14.2344 61.7786 14.5339 61.2578 15.1328C60.737 15.7057 60.3984 16.3828 60.2422 17.1641ZM41.4922 16.7734C42.9245 16.7734 44.2266 16.4219 45.3984 15.7188C46.5443 15.0156 47.4688 14.0911 48.1719 12.9453C48.875 11.7734 49.2266 10.4714 49.2266 9.03906C49.2266 6.90365 48.4714 5.09375 46.9609 3.60938C45.4505 2.09896 43.6276 1.34375 41.4922 1.34375C39.3568 1.34375 37.5469 2.09896 36.0625 3.60938C34.5521 5.09375 33.7969 6.90365 33.7969 9.03906C33.7969 10.4714 34.1484 11.7734 34.8516 12.9453C35.5286 14.0911 36.4531 15.0156 37.625 15.7188C38.7708 16.4219 40.0599 16.7734 41.4922 16.7734ZM48.9141 29.2734C49.9557 29.2734 50.8542 28.9089 51.6094 28.1797C52.3646 27.4245 52.7422 26.513 52.7422 25.4453C52.7422 24.4036 52.3646 23.5052 51.6094 22.75C50.8542 21.9948 49.9557 21.6172 48.9141 21.6172C47.8464 21.6172 46.9479 21.9948 46.2188 22.75C45.4896 23.5052 45.125 24.4036 45.125 25.4453C45.125 26.487 45.4896 27.3854 46.2188 28.1406C46.9479 28.8958 47.8464 29.2734 48.9141 29.2734ZM9.22656 12.0078C10.2943 12.0078 11.2057 11.6432 11.9609 10.9141C12.6901 10.1589 13.0547 9.2474 13.0547 8.17969C13.0547 7.13802 12.6901 6.23958 11.9609 5.48438C11.2057 4.72917 10.2943 4.35156 9.22656 4.35156C8.21094 4.35156 7.33854 4.72917 6.60938 5.48438C5.85417 6.23958 5.47656 7.13802 5.47656 8.17969C5.47656 9.2474 5.85417 10.1589 6.60938 10.9141C7.33854 11.6432 8.21094 12.0078 9.22656 12.0078ZM20.9844 14.1562C20.3594 13.5833 19.6172 13.2969 18.7578 13.2969C17.8984 13.2708 17.1693 13.5573 16.5703 14.1562C15.9974 14.7552 15.7109 15.4844 15.7109 16.3438C15.6849 17.2031 15.9714 17.9453 16.5703 18.5703L23.875 25.7969C24.474 26.4219 25.2031 26.7344 26.0625 26.7344C26.8958 26.7083 27.625 26.3958 28.25 25.7969C28.8229 25.1979 29.1224 24.4818 29.1484 23.6484C29.1484 22.7891 28.849 22.0599 28.25 21.4609L20.9844 14.1562ZM35.7109 29.0391C35.112 28.4922 34.3828 28.2057 33.5234 28.1797C32.6641 28.1536 31.9349 28.4401 31.3359 29.0391C30.763 29.6641 30.4896 30.4062 30.5156 31.2656C30.5156 32.099 30.7891 32.8021 31.3359 33.375L51.4141 53.4531C52.013 54.0521 52.7422 54.3516 53.6016 54.3516C54.4349 54.3516 55.1641 54.0521 55.7891 53.4531C56.388 52.8542 56.6875 52.125 56.6875 51.2656C56.6875 50.4062 56.388 49.6771 55.7891 49.0781L35.7109 29.0391ZM5.55469 47.5938C6.85677 47.5938 7.96354 47.138 8.875 46.2266C9.76042 45.3151 10.2031 44.2083 10.2031 42.9062C10.2031 41.6302 9.76042 40.5365 8.875 39.625C7.96354 38.7135 6.85677 38.2578 5.55469 38.2578C4.2526 38.2578 3.14583 38.7135 2.23438 39.625C1.32292 40.5365 0.867188 41.6302 0.867188 42.9062C0.867188 44.2083 1.32292 45.3151 2.23438 46.2266C3.14583 47.138 4.2526 47.5938 5.55469 47.5938ZM22.625 49.1562C24.4219 49.1562 25.9583 48.5312 27.2344 47.2812C28.4844 46.0312 29.1094 44.4818 29.1094 42.6328C29.1094 40.8359 28.4844 39.2995 27.2344 38.0234C25.9583 36.7214 24.4219 36.0703 22.625 36.0703C20.776 36.0703 19.2135 36.7214 17.9375 38.0234C16.6354 39.2995 15.9844 40.8359 15.9844 42.6328C15.9844 44.4818 16.6354 46.0312 17.9375 47.2812C19.2135 48.5312 20.776 49.1562 22.625 49.1562ZM7.27344 67.75C8.54948 67.75 9.64323 67.3073 10.5547 66.4219C11.4661 65.5104 11.9219 64.4036 11.9219 63.1016C11.9219 61.8255 11.4661 60.7318 10.5547 59.8203C9.64323 58.8828 8.54948 58.4141 7.27344 58.4141C5.97135 58.4141 4.8776 58.8828 3.99219 59.8203C3.08073 60.7318 2.625 61.8255 2.625 63.1016C2.625 64.4036 3.08073 65.5104 3.99219 66.4219C4.8776 67.3073 5.97135 67.75 7.27344 67.75ZM19.4219 57.9062C18.6406 58.0625 17.9635 58.4141 17.3906 58.9609C16.7917 59.4818 16.4922 60.1589 16.4922 60.9922C16.4922 61.8516 16.8177 62.6198 17.4688 63.2969C18.0938 63.9479 18.8359 64.1823 19.6953 64C24.2786 63.1146 28.901 62.6849 33.5625 62.7109C38.1979 62.7109 42.8333 63.1536 47.4688 64.0391C48.3542 64.1953 49.0964 63.9479 49.6953 63.2969C50.2943 62.6198 50.5938 61.8516 50.5938 60.9922C50.6198 60.1849 50.3594 59.5208 49.8125 59C49.2396 58.4531 48.5495 58.0885 47.7422 57.9062C42.9505 57.0208 38.2109 56.5781 33.5234 56.5781C28.8359 56.5781 24.1354 57.0208 19.4219 57.9062Z" fill="url(#paint0_linear_2376_2135)"/>
</g>
<defs>
<filter id="filter0_i_2376_2135" x="0.867188" y="0.914062" width="101.484" height="98.1641" filterUnits="userSpaceOnUse" color-interpolation-filters="sRGB">
<feFlood flood-opacity="0" result="BackgroundImageFix"/>
<feBlend mode="normal" in="SourceGraphic" in2="BackgroundImageFix" result="shape"/>
<feColorMatrix in="SourceAlpha" type="matrix" values="0 0 0 0 0 0 0 0 0 0 0 0 0 0 0 0 0 0 127 0" result="hardAlpha"/>
<feOffset dy="1"/>
<feComposite in2="hardAlpha" operator="arithmetic" k2="-1" k3="1"/>
<feColorMatrix type="matrix" values="0 0 0 0 1 0 0 0 0 1 0 0 0 0 1 0 0 0 0.5 0"/>
<feBlend mode="overlay" in2="shape" result="effect1_innerShadow_2376_2135"/>
</filter>
<linearGradient id="paint0_linear_2376_2135" x1="51" y1="3" x2="51" y2="98" gradientUnits="userSpaceOnUse">
<stop stop-color="#0DC456"/>
<stop offset="1" stop-color="#42BCE2"/>
</linearGradient>
</defs>
</svg>
