<svg width="77" height="88" viewBox="0 0 77 88" fill="none" xmlns="http://www.w3.org/2000/svg">
<g filter="url(#filter0_i_2376_2140)">
<path d="M38.5195 8.25C37.418 8.25 36.4688 7.86328 35.6719 7.08984C34.875 6.29297 34.4766 5.33203 34.4766 4.20703C34.4766 3.10547 34.875 2.16797 35.6719 1.39453C36.4922 0.597656 37.4414 0.199219 38.5195 0.199219C39.6445 0.199219 40.5938 0.597656 41.3672 1.39453C42.1406 2.16797 42.5273 3.10547 42.5273 4.20703C42.5273 5.35547 42.1406 6.31641 41.3672 7.08984C40.6172 7.86328 39.668 8.25 38.5195 8.25ZM21.5391 18.0234C20.4375 18.0234 19.4883 17.6367 18.6914 16.8633C17.918 16.0664 17.5312 15.1055 17.5312 13.9805C17.5312 12.9023 17.9297 11.9648 18.7266 11.168C19.5234 10.3711 20.4609 9.97266 21.5391 9.97266C22.6641 9.97266 23.6133 10.3711 24.3867 11.168C25.1836 11.9414 25.582 12.8789 25.582 13.9805C25.582 15.1289 25.1953 16.0898 24.4219 16.8633C23.6484 17.6367 22.6875 18.0234 21.5391 18.0234ZM55.4648 18.0234C54.3633 18.0234 53.4141 17.6367 52.6172 16.8633C51.8438 16.0664 51.457 15.1055 51.457 13.9805C51.457 12.9023 51.8555 11.9648 52.6523 11.168C53.4492 10.3711 54.3867 9.97266 55.4648 9.97266C56.5898 9.97266 57.5391 10.3711 58.3125 11.168C59.1094 11.9414 59.5078 12.8789 59.5078 13.9805C59.5078 15.1289 59.1211 16.0898 58.3477 16.8633C57.5742 17.6367 56.6133 18.0234 55.4648 18.0234ZM4.59375 27.9375C3.49219 27.9375 2.54297 27.5508 1.74609 26.7773C0.972656 25.9805 0.585938 25.0195 0.585938 23.8945C0.585938 22.8164 0.972656 21.8789 1.74609 21.082C2.54297 20.2852 3.49219 19.8867 4.59375 19.8867C5.71875 19.8867 6.66797 20.2852 7.44141 21.082C8.21484 21.8555 8.60156 22.793 8.60156 23.8945C8.60156 25.043 8.21484 26.0039 7.44141 26.7773C6.69141 27.5508 5.74219 27.9375 4.59375 27.9375ZM38.5195 29.2734C37.043 29.2734 35.7773 28.7461 34.7227 27.6914C33.668 26.6367 33.1406 25.3711 33.1406 23.8945C33.1406 22.4414 33.668 21.1875 34.7227 20.1328C35.8008 19.0781 37.0664 18.5508 38.5195 18.5508C39.9961 18.5508 41.25 19.0781 42.2812 20.1328C43.3359 21.1875 43.8633 22.4414 43.8633 23.8945C43.8633 25.418 43.3477 26.6953 42.3164 27.7266C41.2852 28.7578 40.0195 29.2734 38.5195 29.2734ZM72.3047 27.9375C71.1797 27.9375 70.2305 27.5508 69.457 26.7773C68.6836 25.9805 68.2969 25.0195 68.2969 23.8945C68.2969 22.8164 68.6953 21.8789 69.4922 21.082C70.2891 20.2852 71.2266 19.8867 72.3047 19.8867C73.4297 19.8867 74.3789 20.2852 75.1523 21.082C75.9492 21.8555 76.3477 22.793 76.3477 23.8945C76.3477 25.043 75.9609 26.0039 75.1875 26.7773C74.4141 27.5508 73.4531 27.9375 72.3047 27.9375ZM21.5391 39.1172C20.0625 39.1172 18.7969 38.5898 17.7422 37.5352C16.7109 36.4805 16.1953 35.2148 16.1953 33.7383C16.1953 32.2852 16.7227 31.0312 17.7773 29.9766C18.832 28.8984 20.0859 28.3594 21.5391 28.3594C23.0391 28.3594 24.3047 28.8867 25.3359 29.9414C26.3906 30.9961 26.918 32.2617 26.918 33.7383C26.918 35.2617 26.4023 36.5391 25.3711 37.5703C24.3398 38.6016 23.0625 39.1172 21.5391 39.1172ZM55.4648 39.1172C53.9883 39.1172 52.7227 38.5898 51.668 37.5352C50.6367 36.4805 50.1211 35.2148 50.1211 33.7383C50.1211 32.2852 50.6484 31.0312 51.7031 29.9766C52.7578 28.8984 54.0117 28.3594 55.4648 28.3594C56.9414 28.3594 58.207 28.8867 59.2617 29.9414C60.3164 30.9961 60.8438 32.2617 60.8438 33.7383C60.8438 35.2383 60.3281 36.5156 59.2969 37.5703C58.2656 38.6016 56.9883 39.1172 55.4648 39.1172ZM4.59375 47.6602C3.49219 47.6602 2.54297 47.2734 1.74609 46.5C0.972656 45.7031 0.585938 44.7422 0.585938 43.6172C0.585938 42.5156 0.972656 41.5664 1.74609 40.7695C2.54297 39.9727 3.49219 39.5742 4.59375 39.5742C5.71875 39.5742 6.66797 39.9727 7.44141 40.7695C8.21484 41.543 8.60156 42.4922 8.60156 43.6172C8.60156 44.7422 8.21484 45.7031 7.44141 46.5C6.66797 47.2734 5.71875 47.6602 4.59375 47.6602ZM38.5195 49.875C37.3711 49.875 36.3164 49.5938 35.3555 49.0312C34.418 48.4453 33.668 47.6836 33.1055 46.7461C32.543 45.8086 32.2617 44.7656 32.2617 43.6172C32.2617 42.4922 32.543 41.4609 33.1055 40.5234C33.6914 39.5625 34.4531 38.8008 35.3906 38.2383C36.3281 37.6523 37.3711 37.3594 38.5195 37.3594C39.668 37.3594 40.7109 37.6406 41.6484 38.2031C42.6094 38.7656 43.3711 39.5273 43.9336 40.4883C44.5195 41.4258 44.8125 42.4688 44.8125 43.6172C44.8125 45.375 44.1914 46.8633 42.9492 48.082C41.7305 49.2773 40.2539 49.875 38.5195 49.875ZM72.3047 47.6602C71.1797 47.6602 70.2305 47.2734 69.457 46.5C68.6836 45.7031 68.2969 44.7422 68.2969 43.6172C68.2969 42.5156 68.6953 41.5664 69.4922 40.7695C70.2891 39.9727 71.2266 39.5742 72.3047 39.5742C73.4297 39.5742 74.3789 39.9727 75.1523 40.7695C75.9492 41.543 76.3477 42.4922 76.3477 43.6172C76.3477 44.7422 75.9609 45.7031 75.1875 46.5C74.4141 47.2734 73.4531 47.6602 72.3047 47.6602ZM21.5391 58.875C20.0625 58.875 18.7969 58.3477 17.7422 57.293C16.7109 56.2383 16.1953 54.9727 16.1953 53.4961C16.1953 52.043 16.7227 50.7891 17.7773 49.7344C18.832 48.6562 20.0859 48.1172 21.5391 48.1172C23.0391 48.1172 24.3047 48.6445 25.3359 49.6992C26.3906 50.7539 26.918 52.0195 26.918 53.4961C26.918 54.9961 26.4023 56.2734 25.3711 57.3281C24.3398 58.3594 23.0625 58.875 21.5391 58.875ZM55.4648 58.875C53.9883 58.875 52.7227 58.3477 51.668 57.293C50.6367 56.2383 50.1211 54.9727 50.1211 53.4961C50.1211 52.043 50.6484 50.7891 51.7031 49.7344C52.7578 48.6562 54.0117 48.1172 55.4648 48.1172C56.9648 48.1172 58.2305 48.6445 59.2617 49.6992C60.3164 50.7539 60.8438 52.0195 60.8438 53.4961C60.8438 54.9961 60.3281 56.2734 59.2969 57.3281C58.2656 58.3594 56.9883 58.875 55.4648 58.875ZM4.59375 67.3125C3.46875 67.3125 2.51953 66.9258 1.74609 66.1523C0.972656 65.3789 0.585938 64.4297 0.585938 63.3047C0.585938 62.2031 0.984375 61.2656 1.78125 60.4922C2.57812 59.6953 3.51562 59.2969 4.59375 59.2969C5.71875 59.2969 6.66797 59.6836 7.44141 60.457C8.21484 61.2305 8.60156 62.1797 8.60156 63.3047C8.60156 64.4531 8.21484 65.4141 7.44141 66.1875C6.69141 66.9375 5.74219 67.3125 4.59375 67.3125ZM38.5195 68.6836C37.043 68.6836 35.7773 68.1562 34.7227 67.1016C33.668 66.0469 33.1406 64.7812 33.1406 63.3047C33.1406 61.8516 33.668 60.5977 34.7227 59.543C35.8008 58.4883 37.0664 57.9609 38.5195 57.9609C39.9961 57.9609 41.25 58.4883 42.2812 59.543C43.3359 60.5742 43.8633 61.8281 43.8633 63.3047C43.8633 64.8047 43.3477 66.082 42.3164 67.1367C41.2852 68.168 40.0195 68.6836 38.5195 68.6836ZM72.3047 67.3125C71.1797 67.3125 70.2305 66.9258 69.457 66.1523C68.6836 65.3789 68.2969 64.4297 68.2969 63.3047C68.2969 62.2031 68.6836 61.2656 69.457 60.4922C70.2539 59.6953 71.2031 59.2969 72.3047 59.2969C73.4297 59.2969 74.3789 59.6836 75.1523 60.457C75.9492 61.2305 76.3477 62.1797 76.3477 63.3047C76.3477 64.4531 75.9609 65.4141 75.1875 66.1875C74.4141 66.9375 73.4531 67.3125 72.3047 67.3125ZM21.5391 77.2266C20.4375 77.2266 19.4883 76.8398 18.6914 76.0664C17.918 75.293 17.5312 74.3555 17.5312 73.2539C17.5312 72.1289 17.9297 71.168 18.7266 70.3711C19.5234 69.5977 20.4609 69.2109 21.5391 69.2109C22.6641 69.2109 23.6133 69.5977 24.3867 70.3711C25.1836 71.168 25.582 72.1289 25.582 73.2539C25.582 74.3789 25.1953 75.3164 24.4219 76.0664C23.6484 76.8398 22.6875 77.2266 21.5391 77.2266ZM55.4648 77.2266C54.3633 77.2266 53.4141 76.8398 52.6172 76.0664C51.8438 75.293 51.457 74.3555 51.457 73.2539C51.457 72.1289 51.8555 71.168 52.6523 70.3711C53.4492 69.5977 54.3867 69.2109 55.4648 69.2109C56.5898 69.2109 57.5391 69.5977 58.3125 70.3711C59.1094 71.168 59.5078 72.1289 59.5078 73.2539C59.5078 74.3789 59.1211 75.3164 58.3477 76.0664C57.5742 76.8398 56.6133 77.2266 55.4648 77.2266ZM38.5195 87.0352C37.418 87.0352 36.4688 86.6367 35.6719 85.8398C34.875 85.0664 34.4766 84.1289 34.4766 83.0273C34.4766 81.9258 34.875 80.9766 35.6719 80.1797C36.4922 79.3828 37.4414 78.9844 38.5195 78.9844C39.6445 78.9844 40.5938 79.3711 41.3672 80.1445C42.1406 80.9414 42.5273 81.9023 42.5273 83.0273C42.5273 84.1523 42.1406 85.1016 41.3672 85.875C40.6172 86.6484 39.668 87.0352 38.5195 87.0352Z" fill="url(#paint0_linear_2376_2140)"/>
</g>
<defs>
<filter id="filter0_i_2376_2140" x="0.585938" y="0.199219" width="75.7617" height="86.8359" filterUnits="userSpaceOnUse" color-interpolation-filters="sRGB">
<feFlood flood-opacity="0" result="BackgroundImageFix"/>
<feBlend mode="normal" in="SourceGraphic" in2="BackgroundImageFix" result="shape"/>
<feColorMatrix in="SourceAlpha" type="matrix" values="0 0 0 0 0 0 0 0 0 0 0 0 0 0 0 0 0 0 127 0" result="hardAlpha"/>
<feOffset dy="1"/>
<feComposite in2="hardAlpha" operator="arithmetic" k2="-1" k3="1"/>
<feColorMatrix type="matrix" values="0 0 0 0 1 0 0 0 0 1 0 0 0 0 1 0 0 0 0.5 0"/>
<feBlend mode="overlay" in2="shape" result="effect1_innerShadow_2376_2140"/>
</filter>
<linearGradient id="paint0_linear_2376_2140" x1="38.5" y1="0" x2="38.5" y2="86" gradientUnits="userSpaceOnUse">
<stop stop-color="#2679F5"/>
<stop offset="1" stop-color="#22E2E2"/>
</linearGradient>
</defs>
</svg>
