<svg width="453" height="453" viewBox="0 0 453 453" fill="none" xmlns="http://www.w3.org/2000/svg">
    <rect width="452.696" height="452.696" rx="99.7609" fill="white"/>
    <path d="M180.237 301.59L180.237 353.602C180.234 354.866 180.606 356.101 181.307 357.153C182.007 358.205 183.005 359.025 184.172 359.51C185.34 359.996 186.626 360.124 187.867 359.879C189.108 359.634 190.248 359.026 191.143 358.134L276.832 272.552C293.599 255.795 304.285 233.927 307.195 210.416C310.105 186.905 305.074 163.096 292.898 142.766C280.722 122.435 262.098 106.746 239.981 98.1861C217.864 89.6263 193.518 88.6858 170.805 95.5137C148.091 102.342 128.31 116.547 114.598 135.878C100.886 155.208 94.028 178.558 95.1112 202.223C96.1944 225.888 105.157 248.515 120.578 266.516C135.998 284.516 156.995 296.86 180.237 301.59Z" fill="#2444EB" fill-opacity="0.8"/>
    <path d="M215 246.118C215.008 232.656 218.826 219.473 226.01 208.098C233.194 196.724 243.45 187.625 255.588 181.859C267.725 176.092 281.245 173.895 294.578 175.521C307.912 177.148 320.511 182.532 330.914 191.047C341.316 199.563 349.096 210.862 353.348 223.632C357.6 236.401 358.151 250.118 354.937 263.188C351.723 276.259 344.875 288.148 335.189 297.475C325.504 306.801 313.377 313.183 300.217 315.879V347.281C300.217 352.37 294.082 354.915 290.527 351.31L235.797 296.456C229.192 289.853 223.954 282.006 220.385 273.368C216.816 264.729 214.986 255.468 215 246.118Z" fill="#09E7F5" fill-opacity="0.8"/>
</svg>
