<svg xmlns="http://www.w3.org/2000/svg" width="136" height="169" viewBox="0 0 136 169" fill="none">
  <g opacity="0.5">
    <path d="M114.375 51.3292C114.375 56.8026 104.301 61.6127 78.344 60.8484C81.2211 50.9192 85.5464 42.8086 90.6895 40.4378C101.531 35.4401 114.375 43.8238 114.375 51.3292Z" fill="url(#paint0_linear_2376_2112)"/>
    <path d="M114.375 51.3292C114.375 56.8026 104.301 61.6127 78.344 60.8484C81.2211 50.9192 85.5464 42.8086 90.6895 40.4378C101.531 35.4401 114.375 43.8238 114.375 51.3292Z" fill="url(#paint1_radial_2376_2112)" fill-opacity="0.4"/>
    <path d="M51.1081 50.5311L43.1723 49.5196L41.1491 65.3911L49.0849 66.4027L51.1081 50.5311ZM90.6895 40.4378L94.0386 47.703V47.703L90.6895 40.4378ZM83.6734 110.926L81.7047 118.68L83.6734 110.926ZM150.672 71.0493L158.633 71.8361L150.672 71.0493ZM97.2424 9.26123L95.8829 17.1449L97.2424 9.26123ZM12.5483 51.3292L20.0644 54.0693L12.5483 51.3292ZM19.5642 110.926L25.9627 106.124L19.5642 110.926ZM97.2424 137.969L102.897 132.31C101.397 130.811 99.3632 129.969 97.2424 129.969V137.969ZM112.05 162.964L118.013 168.296L128.678 156.369L122.714 151.036L112.05 162.964ZM49.0849 66.4027C60.2811 67.8299 69.9064 68.6035 78.1086 68.845L78.5794 52.8519C70.9958 52.6286 61.8983 51.9066 51.1081 50.5311L49.0849 66.4027ZM78.1086 68.845C91.4481 69.2377 101.475 68.2409 108.468 66.0675C111.957 64.983 115.213 63.4483 117.732 61.1934C120.39 58.8134 122.375 55.4447 122.375 51.3292H106.375C106.375 49.9504 107.101 49.2355 107.059 49.2729C106.878 49.4354 105.993 50.0817 103.719 50.7884C99.1856 52.1974 91.1966 53.2234 78.5794 52.8519L78.1086 68.845ZM122.375 51.3292C122.375 43.2753 116.083 37.1544 110.331 34.1194C104.075 30.8182 95.5018 29.4104 87.3405 33.1726L94.0386 47.703C96.7189 46.4675 99.9884 46.7527 102.865 48.2703C104.271 49.0125 105.293 49.9114 105.888 50.6744C106.515 51.4804 106.375 51.7286 106.375 51.3292H122.375ZM87.3405 33.1726C82.5754 35.3691 79.1663 39.6555 76.7603 43.7717C74.2445 48.0759 72.2178 53.246 70.6601 58.622L86.0279 63.0749C87.3473 58.5216 88.9218 54.6719 90.5737 51.8457C92.3354 48.8317 93.6605 47.8773 94.0386 47.703L87.3405 33.1726ZM70.6601 58.622C67.539 69.3933 65.9696 82.156 66.7176 92.8776C67.0892 98.2053 68.0659 103.546 70.072 108.006C72.0638 112.435 75.6419 117.14 81.7047 118.68L85.6422 103.172C86.1829 103.309 85.6107 103.548 84.6641 101.444C83.7319 99.3708 82.9819 96.1101 82.6788 91.7642C82.077 83.1386 83.3651 72.2649 86.0279 63.0749L70.6601 58.622ZM81.7047 118.68C95.5967 122.207 113.496 120.014 128.381 112.629C143.431 105.163 156.672 91.6759 158.633 71.8361L142.711 70.2626C141.45 83.0223 133.008 92.4732 121.271 98.2957C109.371 104.199 95.3811 105.644 85.6422 103.172L81.7047 118.68ZM158.633 71.8361C160.003 57.9781 157.736 42.4014 148.305 29.0771C138.786 15.6281 122.722 5.53714 98.6019 1.3776L95.8829 17.1449C116.808 20.7534 128.693 29.0638 135.245 38.3206C141.885 47.702 143.81 59.1353 142.711 70.2626L158.633 71.8361ZM98.6019 1.3776C62.0104 -4.93263 18.8545 10.6743 5.03221 48.5891L20.0644 54.0693C30.404 25.7075 64.2423 11.6884 95.8829 17.1449L98.6019 1.3776ZM5.03221 48.5891C-4.97202 76.031 1.08251 99.6272 13.1658 115.728L25.9627 106.124C17.0108 94.1955 11.9784 76.2496 20.0644 54.0693L5.03221 48.5891ZM13.1658 115.728C28.9767 136.795 56.2743 145.969 97.2424 145.969V129.969C58.026 129.969 37.2133 121.114 25.9627 106.124L13.1658 115.728ZM91.5875 143.628C100.716 152.75 102.42 154.354 112.05 162.964L122.714 151.036C113.3 142.618 111.811 141.218 102.897 132.31L91.5875 143.628Z" fill="url(#paint2_linear_2376_2112)"/>
  </g>
  <defs>
    <linearGradient id="paint0_linear_2376_2112" x1="79.5" y1="8" x2="79.5" y2="157" gradientUnits="userSpaceOnUse">
      <stop stop-color="#B4DCFF"/>
      <stop offset="1" stop-color="white"/>
    </linearGradient>
    <radialGradient id="paint1_radial_2376_2112" cx="0" cy="0" r="1" gradientUnits="userSpaceOnUse" gradientTransform="translate(151 8) rotate(90) scale(82.141 78.8333)">
      <stop stop-color="#00FFE0"/>
      <stop offset="1" stop-color="#00FFFF" stop-opacity="0"/>
    </radialGradient>
    <linearGradient id="paint2_linear_2376_2112" x1="79.5" y1="8" x2="79.5" y2="157" gradientUnits="userSpaceOnUse">
      <stop stop-color="#5078F0"/>
      <stop offset="1" stop-color="#00FFE0" stop-opacity="0"/>
    </linearGradient>
  </defs>
</svg>