<svg width="94" height="89" viewBox="0 0 94 89" fill="none" xmlns="http://www.w3.org/2000/svg">
<g filter="url(#filter0_i_2376_2125)">
<path d="M29.0195 39.4492C28.3867 39.4492 27.8594 39.25 27.4375 38.8516C27.0156 38.4297 26.8047 37.8906 26.8047 37.2344L26.7695 33.7891L24.3789 36.25C23.9102 36.7188 23.3711 36.9414 22.7617 36.918C22.1523 36.8945 21.625 36.6719 21.1797 36.25C20.7344 35.8047 20.5 35.2773 20.4766 34.668C20.4766 34.0352 20.7109 33.4961 21.1797 33.0508L23.6406 30.6602H20.1602C19.5508 30.6602 19.0234 30.4375 18.5781 29.9922C18.1328 29.5469 17.9102 29.0078 17.9102 28.375C17.9102 27.7656 18.1328 27.25 18.5781 26.8281C19.0234 26.3828 19.5508 26.1602 20.1602 26.1602H23.6055L21.1445 23.7344C20.6992 23.2891 20.4766 22.7617 20.4766 22.1523C20.5 21.5195 20.7227 20.9805 21.1445 20.5352C21.6133 20.0898 22.1523 19.8672 22.7617 19.8672C23.3711 19.8672 23.9102 20.0898 24.3789 20.5352L26.8047 22.9609L26.7695 19.5859C26.7461 18.9297 26.957 18.3906 27.4023 17.9688C27.8711 17.5234 28.3984 17.3008 28.9844 17.3008C29.6406 17.3008 30.1797 17.5234 30.6016 17.9688C31.0469 18.3906 31.2695 18.918 31.2695 19.5508L31.3047 22.9609L33.6602 20.5352C34.1055 20.0664 34.6445 19.8437 35.2773 19.8672C35.9102 19.8906 36.4492 20.1133 36.8945 20.5352C37.3164 20.9805 37.5273 21.5195 37.5273 22.1523C37.5508 22.7617 37.3398 23.2891 36.8945 23.7344L34.4336 26.1602H37.8789C38.5117 26.1602 39.0391 26.3828 39.4609 26.8281C39.9062 27.25 40.1289 27.7656 40.1289 28.375C40.1289 29.0078 39.9062 29.5469 39.4609 29.9922C39.0391 30.4375 38.5117 30.6602 37.8789 30.6602H34.4336L36.9297 33.0508C37.3516 33.4961 37.5508 34.0352 37.5273 34.668C37.5273 35.3008 37.3281 35.8281 36.9297 36.25C36.4609 36.6953 35.9102 36.918 35.2773 36.918C34.668 36.918 34.1523 36.6953 33.7305 36.25L31.2695 33.7891L31.3047 37.2344C31.3047 37.8906 31.082 38.4297 30.6367 38.8516C30.1914 39.25 29.6523 39.4492 29.0195 39.4492ZM29.0547 13.3281C28.375 13.3281 27.7773 13.082 27.2617 12.5898C26.7695 12.0977 26.5234 11.5 26.5234 10.7969V3.0625C26.5234 2.38281 26.7695 1.79688 27.2617 1.30469C27.7773 0.8125 28.375 0.566406 29.0547 0.566406C29.7578 0.566406 30.3555 0.8125 30.8477 1.30469C31.3398 1.79688 31.5859 2.38281 31.5859 3.0625V10.7969C31.5859 11.5 31.3398 12.0977 30.8477 12.5898C30.3555 13.082 29.7578 13.3281 29.0547 13.3281ZM36.6836 15.3672C36.0977 15.0391 35.7109 14.5352 35.5234 13.8555C35.3359 13.1758 35.418 12.5312 35.7695 11.9219L39.6367 5.27734C40.0117 4.64453 40.5273 4.24609 41.1836 4.08203C41.8633 3.89453 42.5078 3.97656 43.1172 4.32812C43.7031 4.65625 44.0898 5.16016 44.2773 5.83984C44.4648 6.51953 44.3828 7.17578 44.0312 7.80859L40.1641 14.4531C39.7891 15.0625 39.2617 15.4609 38.582 15.6484C37.9258 15.8125 37.293 15.7188 36.6836 15.3672ZM42.3086 20.957C41.957 20.3711 41.875 19.7383 42.0625 19.0586C42.25 18.3789 42.6367 17.875 43.2227 17.5469L49.9375 13.6797C50.5234 13.3516 51.1562 13.2695 51.8359 13.4336C52.5156 13.5977 53.0195 13.9844 53.3477 14.5938C53.7227 15.2031 53.8047 15.8477 53.5938 16.5273C53.4062 17.207 53.0195 17.7109 52.4336 18.0391L45.7539 21.9062C45.168 22.2344 44.5352 22.3164 43.8555 22.1523C43.1758 21.9883 42.6602 21.5898 42.3086 20.957ZM44.3477 28.6211C44.3477 27.9414 44.5938 27.3555 45.0859 26.8633C45.6016 26.3477 46.1875 26.0898 46.8438 26.0898L54.6133 26.125C55.293 26.125 55.8789 26.3711 56.3711 26.8633C56.8867 27.332 57.1562 27.9297 57.1797 28.6562C57.1562 29.3359 56.8867 29.9336 56.3711 30.4492C55.8789 30.9414 55.2812 31.1875 54.5781 31.1875L46.8438 31.1172C46.1875 31.1172 45.6016 30.8828 45.0859 30.4141C44.5938 29.9453 44.3477 29.3477 44.3477 28.6211ZM42.3086 36.25C42.6367 35.6641 43.1406 35.2891 43.8203 35.125C44.5234 34.9375 45.168 35.0078 45.7539 35.3359L52.4336 39.2383C53.0195 39.5664 53.4062 40.0703 53.5938 40.75C53.8047 41.4062 53.7227 42.0625 53.3477 42.7188C53.0195 43.2812 52.5156 43.6562 51.8359 43.8438C51.1562 44.0312 50.5117 43.9492 49.9023 43.5977L43.2227 39.6953C42.6602 39.3672 42.2734 38.875 42.0625 38.2188C41.875 37.5391 41.957 36.8828 42.3086 36.25ZM36.6836 41.875C37.293 41.5234 37.9375 41.4531 38.6172 41.6641C39.2969 41.8516 39.8125 42.2266 40.1641 42.7891L43.9961 49.5391C44.3242 50.125 44.4062 50.7578 44.2422 51.4375C44.0781 52.1172 43.7031 52.6211 43.1172 52.9492C42.5312 53.3008 41.8867 53.3828 41.1836 53.1953C40.4805 52.9844 39.9531 52.5859 39.6016 52L35.7695 45.3203C35.4414 44.7344 35.3594 44.1133 35.5234 43.457C35.6875 42.7773 36.0742 42.25 36.6836 41.875ZM29.0547 43.9492C29.7578 43.9492 30.3555 44.1953 30.8477 44.6875C31.3398 45.1797 31.5859 45.7656 31.5859 46.4453V54.1797C31.5859 54.8828 31.3398 55.4805 30.8477 55.9727C30.3555 56.4648 29.7578 56.7109 29.0547 56.7109C28.375 56.7109 27.7773 56.4648 27.2617 55.9727C26.7695 55.4805 26.5234 54.8828 26.5234 54.1797V46.4453C26.5234 45.7656 26.7695 45.1797 27.2617 44.6875C27.7773 44.1953 28.375 43.9492 29.0547 43.9492ZM21.3906 41.9102C22 42.2383 22.3984 42.7422 22.5859 43.4219C22.7734 44.1016 22.6914 44.7461 22.3398 45.3555L18.4375 52C18.0859 52.6094 17.582 53.0078 16.9258 53.1953C16.2695 53.3828 15.6367 53.2891 15.0273 52.9141C14.418 52.5859 14.0195 52.0938 13.832 51.4375C13.6445 50.7578 13.7266 50.1133 14.0781 49.5039L17.9805 42.8242C18.332 42.2148 18.8359 41.8164 19.4922 41.6289C20.1484 41.4414 20.7812 41.5352 21.3906 41.9102ZM15.8008 36.2852C16.1523 36.8711 16.2344 37.5156 16.0469 38.2188C15.8594 38.8984 15.4727 39.4141 14.8867 39.7656L8.20703 43.5977C7.62109 43.9258 6.98828 44.0078 6.30859 43.8438C5.62891 43.6562 5.10156 43.2695 4.72656 42.6836C4.39844 42.0977 4.31641 41.4531 4.48047 40.75C4.66797 40.0469 5.06641 39.5312 5.67578 39.2031L12.3555 35.3711C12.9414 35.043 13.5742 34.9609 14.2539 35.125C14.9336 35.2891 15.4492 35.6758 15.8008 36.2852ZM13.7969 28.6562C13.7969 29.3359 13.5391 29.9336 13.0234 30.4492C12.5078 30.9414 11.9102 31.1875 11.2305 31.1875L3.49609 31.1172C2.81641 31.1172 2.21875 30.8828 1.70312 30.4141C1.21094 29.9219 0.964844 29.3242 0.964844 28.6211C0.964844 27.9414 1.21094 27.3555 1.70312 26.8633C2.21875 26.3477 2.82812 26.0898 3.53125 26.0898L11.2305 26.125C11.9102 26.125 12.4961 26.3711 12.9883 26.8633C13.5039 27.332 13.7734 27.9297 13.7969 28.6562ZM15.8008 20.9922C15.4727 21.6016 14.957 22 14.2539 22.1875C13.5508 22.3516 12.918 22.2695 12.3555 21.9414L5.67578 18.0039C5.08984 17.6758 4.70312 17.1836 4.51562 16.5273C4.32812 15.8477 4.39844 15.1914 4.72656 14.5586C5.10156 13.9961 5.62891 13.6211 6.30859 13.4336C6.98828 13.2461 7.63281 13.3281 8.24219 13.6797L14.8867 17.582C15.4727 17.9102 15.8594 18.4141 16.0469 19.0938C16.2344 19.75 16.1523 20.3828 15.8008 20.9922ZM21.3906 15.4023C20.8047 15.7539 20.1719 15.8359 19.4922 15.6484C18.8125 15.4609 18.3086 15.0742 17.9805 14.4883L14.1133 7.77344C13.7852 7.16406 13.7031 6.53125 13.8672 5.875C14.0312 5.19531 14.418 4.66797 15.0273 4.29297C15.6133 3.96484 16.2461 3.89453 16.9258 4.08203C17.6289 4.26953 18.1445 4.66797 18.4727 5.27734L22.3398 11.957C22.668 12.5195 22.75 13.1406 22.5859 13.8203C22.4219 14.5 22.0234 15.0273 21.3906 15.4023ZM73.9492 74.3242C73.3398 74.3242 72.8359 74.125 72.4375 73.7266C72.0391 73.3281 71.8398 72.8359 71.8398 72.25V67.293L69.3086 69.7891C68.8867 70.2344 68.3828 70.457 67.7969 70.457C67.2344 70.457 66.7422 70.2344 66.3203 69.7891C65.875 69.3672 65.6523 68.875 65.6523 68.3125C65.6523 67.75 65.875 67.2461 66.3203 66.8008L68.8164 64.3047H63.8594C63.2969 64.3047 62.8047 64.0938 62.3828 63.6719C61.9844 63.25 61.7852 62.7461 61.7852 62.1602C61.7852 61.5742 61.9844 61.082 62.3828 60.6836C62.8047 60.2617 63.2969 60.0508 63.8594 60.0508H68.8516L66.2852 57.5195C65.8633 57.0977 65.6523 56.6055 65.6523 56.043C65.6523 55.457 65.875 54.9531 66.3203 54.5312C66.7422 54.1094 67.2461 53.8984 67.832 53.8984C68.418 53.8984 68.9102 54.1094 69.3086 54.5312L71.8398 57.0625V52.1406C71.8398 51.5547 72.0391 51.0508 72.4375 50.6289C72.8359 50.207 73.3398 49.9961 73.9492 49.9961C74.5352 49.9961 75.0273 50.207 75.4258 50.6289C75.8477 51.0508 76.0586 51.5547 76.0586 52.1406V57.0625L78.625 54.5312C79.0234 54.1094 79.5156 53.8984 80.1016 53.8984C80.6875 53.8984 81.1797 54.1094 81.5781 54.5312C82.0234 54.9531 82.2461 55.457 82.2461 56.043C82.2461 56.6055 82.0234 57.0977 81.5781 57.5195L79.0469 60.0508H84.0039C84.5898 60.0508 85.0938 60.2617 85.5156 60.6836C85.9375 61.082 86.1484 61.5742 86.1484 62.1602C86.1484 62.7461 85.9375 63.25 85.5156 63.6719C85.0938 64.0938 84.5898 64.3047 84.0039 64.3047H79.082L81.543 66.8008C82.0117 67.2461 82.2461 67.75 82.2461 68.3125C82.2461 68.875 82.0117 69.3672 81.543 69.7891C81.168 70.2344 80.6875 70.457 80.1016 70.457C79.5156 70.457 79.0234 70.2344 78.625 69.7891L76.0586 67.293V72.25C76.0586 72.8359 75.8477 73.3281 75.4258 73.7266C75.0273 74.125 74.5352 74.3242 73.9492 74.3242ZM73.9492 47.8164C73.1758 47.8164 72.5195 47.5469 71.9805 47.0078C71.4414 46.4688 71.1719 45.8008 71.1719 45.0039C71.1719 44.2305 71.4414 43.5742 71.9805 43.0352C72.5195 42.4727 73.1758 42.1914 73.9492 42.1914C74.7227 42.1914 75.3789 42.4727 75.918 43.0352C76.457 43.5742 76.7266 44.2305 76.7266 45.0039C76.7266 45.8008 76.457 46.4688 75.918 47.0078C75.3789 47.5469 74.7227 47.8164 73.9492 47.8164ZM85.5859 53.0898C84.8828 53.0898 84.2734 52.8438 83.7578 52.3516C83.2656 51.8359 83.0195 51.2148 83.0195 50.4883C83.0195 49.7617 83.2656 49.1523 83.7578 48.6602C84.2734 48.1445 84.8828 47.8867 85.5859 47.8867C86.2891 47.8867 86.8984 48.1445 87.4141 48.6602C87.9297 49.1523 88.1875 49.7617 88.1875 50.4883C88.1875 51.2148 87.9297 51.8359 87.4141 52.3516C86.8984 52.8438 86.2891 53.0898 85.5859 53.0898ZM91.1406 64.9727C90.3438 64.9727 89.6758 64.7031 89.1367 64.1641C88.6211 63.625 88.3633 62.957 88.3633 62.1602C88.3633 61.4102 88.6211 60.7656 89.1367 60.2266C89.6758 59.6875 90.3438 59.418 91.1406 59.418C91.9141 59.418 92.5703 59.6875 93.1094 60.2266C93.6484 60.7656 93.918 61.4102 93.918 62.1602C93.918 62.957 93.6484 63.625 93.1094 64.1641C92.5703 64.7031 91.9141 64.9727 91.1406 64.9727ZM85.5859 76.4688C84.8828 76.4688 84.2734 76.2109 83.7578 75.6953C83.2656 75.2031 83.0195 74.5938 83.0195 73.8672C83.0195 73.1406 83.2656 72.5195 83.7578 72.0039C84.2734 71.5117 84.8828 71.2656 85.5859 71.2656C86.2891 71.2656 86.8984 71.5117 87.4141 72.0039C87.9297 72.5195 88.1875 73.1406 88.1875 73.8672C88.1875 74.5938 87.9297 75.2031 87.4141 75.6953C86.8984 76.2109 86.2891 76.4688 85.5859 76.4688ZM73.9492 82.1289C73.1758 82.1289 72.5195 81.8594 71.9805 81.3203C71.4414 80.7812 71.1719 80.125 71.1719 79.3516C71.1719 78.5781 71.4414 77.9102 71.9805 77.3477C72.5195 76.8086 73.1758 76.5391 73.9492 76.5391C74.7227 76.5391 75.3789 76.8086 75.918 77.3477C76.457 77.9102 76.7266 78.5781 76.7266 79.3516C76.7266 80.125 76.457 80.7812 75.918 81.3203C75.3789 81.8594 74.7227 82.1289 73.9492 82.1289ZM62.3125 76.4336C61.6094 76.4336 61 76.1875 60.4844 75.6953C59.9688 75.2031 59.7109 74.5938 59.7109 73.8672C59.7109 73.1406 59.9688 72.5195 60.4844 72.0039C61 71.5117 61.6094 71.2656 62.3125 71.2656C63.0391 71.2656 63.6484 71.5117 64.1406 72.0039C64.6328 72.5195 64.8789 73.1406 64.8789 73.8672C64.8789 74.5938 64.6328 75.2031 64.1406 75.6953C63.6484 76.1875 63.0391 76.4336 62.3125 76.4336ZM56.7578 64.9727C55.9844 64.9727 55.3281 64.7031 54.7891 64.1641C54.25 63.625 53.9805 62.957 53.9805 62.1602C53.9805 61.4102 54.25 60.7656 54.7891 60.2266C55.3281 59.6875 55.9844 59.418 56.7578 59.418C57.5547 59.418 58.2227 59.6875 58.7617 60.2266C59.3242 60.7656 59.5938 61.4102 59.5703 62.1602C59.5938 62.957 59.3242 63.625 58.7617 64.1641C58.2227 64.7031 57.5547 64.9727 56.7578 64.9727ZM62.3125 53.0898C61.6094 53.0898 61 52.8438 60.4844 52.3516C59.9688 51.8359 59.7109 51.2148 59.7109 50.4883C59.7109 49.7617 59.9688 49.1523 60.4844 48.6602C61 48.1445 61.6094 47.8867 62.3125 47.8867C63.0391 47.8867 63.6484 48.1445 64.1406 48.6602C64.6328 49.1523 64.8789 49.7617 64.8789 50.4883C64.8789 51.2148 64.6328 51.8359 64.1406 52.3516C63.6484 52.8438 63.0391 53.0898 62.3125 53.0898ZM77.4297 32.8398C77.0312 32.8398 76.7148 32.7344 76.4805 32.5234C76.2461 32.2891 76.1055 31.9961 76.0586 31.6445C75.6836 29.5352 75.332 27.918 75.0039 26.793C74.6758 25.6445 74.2188 24.8125 73.6328 24.2969C73.0469 23.7578 72.1914 23.3477 71.0664 23.0664C69.9648 22.7852 68.4297 22.4453 66.4609 22.0469C65.6875 21.8828 65.3008 21.4141 65.3008 20.6406C65.3008 20.2891 65.4062 19.9961 65.6172 19.7617C65.8516 19.5273 66.1328 19.375 66.4609 19.3047C68.4297 18.9297 69.9648 18.6133 71.0664 18.3555C72.168 18.0742 73.0117 17.6641 73.5977 17.125C74.207 16.5625 74.6758 15.707 75.0039 14.5586C75.332 13.4102 75.6836 11.793 76.0586 9.70703C76.1992 8.91016 76.6562 8.51172 77.4297 8.51172C78.2031 8.51172 78.6602 8.91016 78.8008 9.70703C79.1758 11.7695 79.5039 13.375 79.7852 14.5234C80.0898 15.6484 80.5234 16.4805 81.0859 17.0195C81.6484 17.5352 82.5039 17.9453 83.6523 18.25C84.8008 18.5312 86.4062 18.8828 88.4688 19.3047C89.2422 19.4688 89.6289 19.9141 89.6289 20.6406C89.6289 21.4375 89.2305 21.9062 88.4336 22.0469C86.3711 22.4219 84.7773 22.75 83.6523 23.0312C82.5273 23.2891 81.6836 23.6875 81.1211 24.2266C80.5586 24.7656 80.125 25.6094 79.8203 26.7578C79.5156 27.9063 79.1758 29.5352 78.8008 31.6445C78.6602 32.4414 78.2031 32.8398 77.4297 32.8398ZM40.5508 88.7383C40.2227 88.7383 39.9531 88.6445 39.7422 88.457C39.5547 88.2695 39.4375 88.0352 39.3906 87.7539C39.0859 86.1367 38.8047 84.8711 38.5469 83.957C38.2891 83.043 37.9258 82.3516 37.457 81.8828C36.9883 81.4141 36.2969 81.0508 35.3828 80.793C34.4688 80.5352 33.2031 80.2422 31.5859 79.9141C30.9062 79.7734 30.5664 79.3984 30.5664 78.7891C30.5664 78.1562 30.9062 77.7812 31.5859 77.6641C33.2031 77.3359 34.4688 77.043 35.3828 76.7852C36.3203 76.5508 37.0117 76.1992 37.457 75.7305C37.9258 75.2617 38.2891 74.5703 38.5469 73.6562C38.8047 72.7422 39.0859 71.4766 39.3906 69.8594C39.5078 69.1797 39.8945 68.8398 40.5508 68.8398C41.1602 68.8398 41.5234 69.1797 41.6406 69.8594C41.9453 71.4766 42.2266 72.7305 42.4844 73.6211C42.7422 74.5352 43.1055 75.2148 43.5742 75.6602C44.043 76.1289 44.7344 76.4922 45.6484 76.75C46.5625 77.0078 47.8398 77.3125 49.4805 77.6641C50.1367 77.7812 50.4648 78.1562 50.4648 78.7891C50.4648 79.4219 50.125 79.7969 49.4453 79.9141C47.8047 80.2422 46.5273 80.5234 45.6133 80.7578C44.6992 81.0156 44.0078 81.3789 43.5391 81.8477C43.0938 82.3164 42.7422 82.9961 42.4844 83.8867C42.2266 84.8008 41.9453 86.0898 41.6406 87.7539C41.5469 88.4102 41.1836 88.7383 40.5508 88.7383ZM21.7422 77.3828C21.2266 77.3828 20.9219 77.1133 20.8281 76.5742C20.5703 75.2383 20.3359 74.1953 20.125 73.4453C19.9141 72.7188 19.6211 72.168 19.2461 71.793C18.8711 71.418 18.3086 71.125 17.5586 70.9141C16.8086 70.7031 15.7656 70.457 14.4297 70.1758C13.8672 70.082 13.5859 69.7773 13.5859 69.2617C13.5859 68.7227 13.8672 68.4062 14.4297 68.3125C15.7656 68.0547 16.8086 67.832 17.5586 67.6445C18.3086 67.4336 18.8711 67.1406 19.2461 66.7656C19.6211 66.3906 19.9141 65.8281 20.125 65.0781C20.3359 64.3281 20.5703 63.2852 20.8281 61.9492C20.9219 61.4102 21.2266 61.1406 21.7422 61.1406C22.2812 61.1406 22.5859 61.4102 22.6562 61.9492C22.9141 63.2852 23.1484 64.3281 23.3594 65.0781C23.5703 65.8047 23.8633 66.3555 24.2383 66.7305C24.6133 67.1055 25.1758 67.3984 25.9258 67.6094C26.6758 67.8203 27.7188 68.0547 29.0547 68.3125C29.6172 68.4062 29.8984 68.7227 29.8984 69.2617C29.8984 69.7773 29.6172 70.082 29.0547 70.1758C27.7188 70.4336 26.6758 70.668 25.9258 70.8789C25.1758 71.0898 24.6133 71.3828 24.2383 71.7578C23.8633 72.1328 23.5703 72.6953 23.3594 73.4453C23.1484 74.1953 22.9141 75.2383 22.6562 76.5742C22.5859 77.1133 22.2812 77.3828 21.7422 77.3828Z" fill="url(#paint0_linear_2376_2125)"/>
</g>
<defs>
<filter id="filter0_i_2376_2125" x="0.964844" y="0.566406" width="92.9531" height="88.1719" filterUnits="userSpaceOnUse" color-interpolation-filters="sRGB">
<feFlood flood-opacity="0" result="BackgroundImageFix"/>
<feBlend mode="normal" in="SourceGraphic" in2="BackgroundImageFix" result="shape"/>
<feColorMatrix in="SourceAlpha" type="matrix" values="0 0 0 0 0 0 0 0 0 0 0 0 0 0 0 0 0 0 127 0" result="hardAlpha"/>
<feOffset dy="1"/>
<feComposite in2="hardAlpha" operator="arithmetic" k2="-1" k3="1"/>
<feColorMatrix type="matrix" values="0 0 0 0 1 0 0 0 0 1 0 0 0 0 1 0 0 0 0.5 0"/>
<feBlend mode="overlay" in2="shape" result="effect1_innerShadow_2376_2125"/>
</filter>
<linearGradient id="paint0_linear_2376_2125" x1="47.5" y1="1" x2="47.5" y2="87" gradientUnits="userSpaceOnUse">
<stop stop-color="#AD00FF"/>
<stop offset="1" stop-color="#9DE8FF"/>
</linearGradient>
</defs>
</svg>
